<?xml version="1.0" encoding="UTF-8" standalone="no"?>
<svg
   xmlns:dc="http://purl.org/dc/elements/1.1/"
   xmlns:cc="http://creativecommons.org/ns#"
   xmlns:rdf="http://www.w3.org/1999/02/22-rdf-syntax-ns#"
   xmlns:svg="http://www.w3.org/2000/svg"
   xmlns="http://www.w3.org/2000/svg"
   xmlns:sodipodi="http://sodipodi.sourceforge.net/DTD/sodipodi-0.dtd"
   xmlns:inkscape="http://www.inkscape.org/namespaces/inkscape"
   version="1.1"
   width="45"
   height="45"
   id="svg12"
   sodipodi:docname="head.svg"
   inkscape:version="0.92.3 (2405546, 2018-03-11)">
  <metadata
     id="metadata18">
    <rdf:RDF>
      <cc:Work
         rdf:about="">
        <dc:format>image/svg+xml</dc:format>
        <dc:type
           rdf:resource="http://purl.org/dc/dcmitype/StillImage" />
        <dc:title></dc:title>
      </cc:Work>
    </rdf:RDF>
  </metadata>
  <defs
     id="defs16" />
  <sodipodi:namedview
     pagecolor="#ffffff"
     bordercolor="#666666"
     borderopacity="1"
     objecttolerance="10"
     gridtolerance="10"
     guidetolerance="10"
     inkscape:pageopacity="0"
     inkscape:pageshadow="2"
     inkscape:window-width="1920"
     inkscape:window-height="1153"
     id="namedview14"
     showgrid="false"
     inkscape:zoom="10.488889"
     inkscape:cx="34.466721"
     inkscape:cy="14.962126"
     inkscape:window-x="-4"
     inkscape:window-y="-4"
     inkscape:window-maximized="1"
     inkscape:current-layer="g10" />
  <g
     style="opacity:1; fill:none; fill-opacity:1; fill-rule:evenodd; stroke:#000000; stroke-width:1.5; stroke-linecap:round;stroke-linejoin:round;stroke-miterlimit:4; stroke-dasharray:none; stroke-opacity:1;"
     id="g10">
    <g
       id="g4542"
       transform="matrix(0.94688534,0,0,0.94688534,2.1881057,-0.10375238)">
      <path
         id="path4"
         style="fill:#ffffff;stroke:#000000;stroke-width:2.20707273"
         d="m 34.679959,22.378568 c 0.559125,4.281721 -8.166169,10.844083 -11.771055,13.242435 -4.414145,2.942764 -4.149296,6.385798 -7.356908,5.885528 -1.53318,-1.383099 2.074648,-4.473001 0,-4.414146 -1.471382,0 0.279563,1.8098 -1.471382,2.942764 -1.471382,0 -5.8899413,1.471382 -5.8855271,-5.885527 0,-2.942764 8.8282901,-17.656582 8.8282901,-17.656582 0,0 2.780912,-2.795625 2.942764,-5.149836 -1.074109,-1.4625532 -0.73569,-2.9427632 -0.73569,-4.4141451 1.471381,-1.4713817 4.414145,3.6784541 4.414145,3.6784541 h 2.942763 c 0,0 1.147678,-2.9309921 3.678455,-4.4141449 1.471381,0 1.471381,4.4141449 1.471381,4.4141449"
         inkscape:connector-curvature="0" />
      <path
         id="path6"
         style="fill:#000000;stroke:#000000;stroke-width:2.20707273"
         d="m 13.344923,33.413931 a 0.73569103,0.73569103 0 1 1 -1.471382,0 0.73569103,0.73569103 0 1 1 1.471382,0 z"
         inkscape:connector-curvature="0" />
      <path
         id="path8"
         style="fill:#000000;stroke:#000000;stroke-width:2.2070241"
         d="m 21.33894,19.067958 a 0.73567468,2.2070241 30.000729 1 1 -1.274217,-0.73569 0.73567468,2.2070241 30.000729 1 1 1.274217,0.73569 z"
         inkscape:connector-curvature="0" />
    </g>
  </g>
</svg>
